<svg id="Layer_1" data-name="Layer 1" xmlns="http://www.w3.org/2000/svg" viewBox="0 0 483.74 92.38"><defs><style>.cls-1{fill:#26b2b5;}.cls-2{fill:#29b4b6;}.cls-3{fill:#0088c3;}.cls-4{fill:#0071aa;}.cls-5{fill:#00a5be;}.cls-6{font-size:64px;font-family:Georgia-BoldItalic, Georgia;font-weight:700;}.cls-6,.cls-7{fill:#231f20;font-style:italic;}.cls-7{font-size:26px;font-family:Futura-MediumItalic, Futura;}.cls-8{letter-spacing:0.02em;}.cls-9{letter-spacing:0em;}.cls-10{letter-spacing:-0.01em;}.cls-11{letter-spacing:0.01em;}.cls-12{letter-spacing:0em;}</style></defs><title>Logo_Horizontal</title><polygon id="_Path_" data-name="&lt;Path&gt;" class="cls-1" points="24.61 84.62 0 44.38 49.19 44.36 24.61 84.62"/><polyline id="_Path_2" data-name="&lt;Path&gt;" class="cls-2" points="24.58 4.13 0 44.38 49.19 44.36 24.58 4.13"/><polyline id="_Path_3" data-name="&lt;Path&gt;" class="cls-3" points="73.77 4.11 24.58 4.13 49.19 44.36"/><polygon id="_Path_4" data-name="&lt;Path&gt;" class="cls-4" points="73.8 84.6 98.38 44.35 49.19 44.36 73.8 84.6"/><polygon id="_Path_5" data-name="&lt;Path&gt;" class="cls-4" points="49.19 44.36 98.38 44.35 73.77 4.11 49.19 44.36"/><polygon id="_Path_6" data-name="&lt;Path&gt;" class="cls-5" points="73.8 84.6 122.99 84.58 98.38 44.35 73.8 84.6"/><polygon id="_Path_7" data-name="&lt;Path&gt;" class="cls-2" points="122.99 84.58 147.57 44.33 98.38 44.35 122.99 84.58"/><polygon id="_Path_8" data-name="&lt;Path&gt;" class="cls-2" points="98.38 44.35 147.57 44.33 122.97 4.09 98.38 44.35"/><text class="cls-6" transform="translate(165.26 54.17)">Ductilis</text><text class="cls-7" transform="translate(163.9 84.62)">in<tspan class="cls-8" x="21.02" y="0">t</tspan><tspan x="29.12" y="0">elli</tspan><tspan class="cls-9" x="63.88" y="0">g</tspan><tspan x="79.88" y="0">ent p</tspan><tspan class="cls-10" x="140.35" y="0">r</tspan><tspan x="150.11" y="0">ocess ma</tspan><tspan class="cls-11" x="257.57" y="0">c</tspan><tspan class="cls-12" x="269.86" y="0">hine</tspan></text></svg>